<?xml version="1.0"?>
<svg xmlns="http://www.w3.org/2000/svg" xmlns:xlink="http://www.w3.org/1999/xlink" version="1.1" id="Layer_1" x="0px" y="0px" viewBox="0 0 496.2 496.2" style="enable-background:new 0 0 496.2 496.2;" xml:space="preserve" width="512px" height="512px" class=""><g><path style="fill:#475F6C" d="M496.2,248.1C496.2,111.1,385.1,0,248.1,0S0,111.1,0,248.1s111.1,248.1,248.1,248.1  S496.2,385.1,496.2,248.1z" data-original="#EA4949" class="active-path" data-old_color="#475f6c"/><g>
	<path style="fill:#DFA17C;" d="M436.2,409.8l-36-18.3c-35.8-16.4-56.9-35.4-56.9-35.4s-50.7,35.5-123.3,77.7   c-33.7,19.6-48.5,36.2-54.7,48.3c25.9,9.1,53.7,14.1,82.7,14.1C323.3,496.2,390.7,462.7,436.2,409.8z" data-original="#DFA17C"/>
	<path style="fill:#DFA17C;" d="M212.3,429.7c0,0,32.3,44.3,47.3,57c0,0,9.6,9.1,18-0.6c14.9-17.1,37.9-46,51.8-75.2   c0,0,24-24.8,8.3-83.3l-115.3,21.7l-55.8-90l-27.8,47.3L212.3,429.7z" data-original="#DFA17C"/>
</g><path style="fill:#AD7255;" d="M212.3,429.7c0,0-0.8-13.6,5.3-15.8c3.8-1.4,10.8,11.1,16.5,9.8c9.8-2.3,4.5-21,18.8-27.8  c7.2-3.4,11.3,1.5,21.8-2.3c24.8-8.8,50.3-29.5,53.3-34.5c2.3-3.8,9.8-31.5,9.8-31.5l-115.3,21.7l-28.1-43.6L166.6,353L212.3,429.7z  " data-original="#AD7255" class=""/><path style="fill:#82503A;" d="M182.2,314.7c0,2.5-2,4.5-4.5,4.5h-40.6c-2.5,0-4.5-2-4.5-4.5v-51.8c0-2.5,2-4.5,4.5-4.5h40.5  c2.5,0,4.5,2,4.5,4.5v51.8H182.2z" data-original="#82503A" class=""/><path style="fill:#DFA17C;" d="M341.4,146.8l-96.8-40.1l-96.1,23.1c0,0-14.9,114.6-14.9,121.3c0,6.8,13.5,60,19.5,76.6  c6,16.5,31.5,22.5,52.5,29.3c19.9,6.4,37.9,6.3,39.7,6.2c1.8,0,19.8,0.2,39.7-6.2c21-6.8,46.5-12.8,52.5-29.3s19.5-69.8,19.5-76.6  C357.1,244.3,341.4,146.8,341.4,146.8z" data-original="#DFA17C"/><path style="fill:#443224;" d="M265.8,188.8c0,0,28.1-9.9,40.2-9.6c0,0,12-1.5,19.9,7.9c0,0,11.8,13.8,11.4,14.4  c-0.4,0.6-3.8-0.9-8.3-5.8c0,0-10.9-9.4-16.7-9.4c-8.1,0-14.4,2.4-31,6.2c0,0-12.2,3.9-14.3,2.4C267.1,195,263.1,192,265.8,188.8z" data-original="#443224"/><g>
	<path style="fill:#CE8B6A;" d="M267.3,217.3c0,0-0.8-22.8,31.3-16.3c0,0,10.3,3.3,16.5,9.3c0,0-13.5-8.8-30.8-5.8   C284.3,204.6,272.1,206.8,267.3,217.3z" data-original="#CE8B6A" class=""/>
	<path style="fill:#CE8B6A;" d="M286.5,230.1c0,0,14.4,9.9,31.3-2.9l-1-1C316.7,226.2,304,236.8,286.5,230.1z" data-original="#CE8B6A" class=""/>
</g><path style="fill:#1C1C1B;" d="M306.1,222.6c0,3.2-4,5.8-9,5.8s-9-2.6-9-5.8c0-0.3,0-0.6,0.1-0.9c0.7-2.8,17.6-2.5,17.9,0.5  C306.1,222.3,306.1,222.5,306.1,222.6z" data-original="#1C1C1B" class=""/><g>
	<path style="fill:#262626;" d="M273.8,221.8c0,0,27-9.4,44.7,1.9c0,0,3.8,2.3,13.9-3c0,0-2.7,5.9-11.7,7.1   c-1.4,0.2-3.1,0.1-6.8-1.9c0,0-5.9-4.4-12.7-4.9c0,0-12.5-0.8-22.3,2.8l-6,0.5C272.8,224.3,272.6,222.1,273.8,221.8z" data-original="#262626" class=""/>
	<path style="fill:#262626;" d="M277.7,223.6c0,0,13.2,15.5,36.9,2.3l-0.6-1.2C314,224.6,293.9,237,277.7,223.6z" data-original="#262626" class=""/>
</g><path style="fill:#443224;" d="M229.4,188.8c0,0-28.1-9.9-40.2-9.6c0,0-12-1.5-19.9,7.9c0,0-11.8,13.8-11.4,14.4  c0.4,0.6,3.8-0.9,8.3-5.8c0,0,10.9-9.4,16.7-9.4c8.1,0,14.4,2.4,31,6.2c0,0,12.2,3.9,14.3,2.4C228.1,195,232,192,229.4,188.8z" data-original="#443224"/><g>
	<path style="fill:#CE8B6A;" d="M227.9,217.3c0,0,0.8-22.8-31.3-16.3c0,0-10.3,3.3-16.5,9.3c0,0,13.5-8.8,30.8-5.8   C210.8,204.6,223.1,206.8,227.9,217.3z" data-original="#CE8B6A" class=""/>
	<path style="fill:#CE8B6A;" d="M208.7,230.1c0,0-14.4,9.9-31.3-2.9l1-1C178.4,226.2,191.2,236.8,208.7,230.1z" data-original="#CE8B6A" class=""/>
</g><path style="fill:#1C1C1B;" d="M189.1,222.6c0,3.2,4,5.8,9,5.8s9-2.6,9-5.8c0-0.3,0-0.6-0.1-0.9c-0.7-2.8-17.6-2.5-17.9,0.5  C189.1,222.3,189.1,222.5,189.1,222.6z" data-original="#1C1C1B" class=""/><path style="fill:#262626;" d="M217.5,223.6c0,0-13.2,15.5-36.9,2.3l0.6-1.2C181.2,224.6,201.3,237,217.5,223.6z" data-original="#262626" class=""/><path style="fill:#F7F0D5;" d="M249.3,136c0,0,21.6-14,44.8-7.2c23.3,6.8,35.3,9.8,40.5,23.3c5.3,13.5,11.8,43.8,11.3,59.3  c-0.8,19.9,9.8,34.9,7.1,51.8c-2.4,15.3-15,31.5-11.3,45.8c1.1,4.1-4.2,14.7-3.8,21.4c1,16.8,6.4,32.6,6.4,32.6s3,14.3,27,14.3  c0,0,66-6.8,54.8-87.8c0,0-3-90.8-31.5-124.6c0,0-3.8-18.8-45-18.8c0,0,27-64.5-60-82.6c0,0-32.3-28.5-106.6-6.8  c0,0-70.5,26.3-75.1,75.8c0,0-55.3,30.2-31.7,78.6c0,0-10.3,55,11.3,65.3c0,0-27,46.2,24.1,77.5c0,0,3.8,27.8,23.3,33.8  c0,0,8.3,21.8,18.8,29.3c0,0,36,17.3,58.5,12.8c0,0-31.1-46.2-30-85.6c0.5-18.3-9.8-47.3-27.8-55.5c0,0,23.3-47.3,2.3-114.1  c0,0-5.5-25.5,15.8-39C192.5,122.8,214.2,110,249.3,136z" data-original="#F7F0D5"/><path style="fill:#F4EBC1;" d="M349.6,146c0,0,27-64.5-60-82.6c0,0-32.3-28.5-106.6-6.8c0,0-70.5,26.3-75.1,75.8  c0,0-55.3,30.2-31.7,78.6c0,0,47.2-5.4,39.9,18.2c-13.5,43.5,39.2,59.7,38.3,59.3c0,0,23.3-47.3,2.3-114.1c0,0-5.5-25.5,15.8-39  c20-12.8,41.7-25.6,76.7,0.5c0,0,21.6-14,44.8-7.2c23.3,6.8,35.3,9.8,40.5,23.3c0.4,1,0.8,2.1,1.2,3.3c0.1,0,0.1-0.1,0.2-0.1  C340.8,153.2,351.3,146,349.6,146z" data-original="#F4EBC1" class=""/><path style="fill:#EFE3AF;" d="M182.3,344.2c0.5-18.3-9.8-47.3-27.8-55.5c0,0-5.8-22.6-21.9-25.7c-18.3-3.5-47.1,12.5-45,13.5  c0,0-27,46.2,24.1,77.5c0,0,3.8,27.8,23.3,33.8c0,0,8.3,21.8,18.8,29.3c0,0,36,17.3,58.5,12.8C212.3,429.7,181.2,383.6,182.3,344.2z  " data-original="#EFE3AF"/><path style="fill:#E5D698;" d="M166,123.6c0,0-27.8,16.6-9.3,50.9c0,0-3.2-20.1,9.4-33C183,124.3,166,123.6,166,123.6z" data-original="#E5D698"/><path style="fill:#EFE3AF;" d="M249.3,136c0,0,14.7-45.1-23.6-53c0,0-41.1-10.5-52.8,16.5c-5.1,11.9-6.9,24.1-6.9,24.1  s4.6,13.7,7.3,11.7C192,121.7,219.9,115.4,249.3,136z" data-original="#EFE3AF"/><path style="fill:#E5D698;" d="M374.4,247c3.4,1.1,10.5,8.8,1.5,15.6c0,0-21.4,3.6-28.5,19.3c0,0,10.5-24.2,2.1-42  c0,0-5.6-5.3-3.4-30.8C346.1,209.1,356.4,241,374.4,247z" data-original="#E5D698"/><path style="fill:#1C1C1B;" d="M297,269.9c0,0-0.9,2.4,1.4,2.5c0,0,0.9,0,0.5-1.8C298.9,270.6,298.6,269.5,297,269.9z" data-original="#1C1C1B" class=""/><path style="fill:#FFFFFF;" d="M273.9,302.5c0,0-10.8-11-23.5-10.3c-12.8-0.7-23.5,10.3-23.5,10.3c4.6-1,14.3,3.3,23.8,3.3  C260.1,305.8,269.3,301.6,273.9,302.5z" data-original="#FFFFFF"/><path style="fill:#AA0F0F;" d="M287.4,299.7c-2.1-6-16.7-15.9-16.7-15.9c-8.7-6.6-19.6-0.8-21,0.1c-1.5-0.8-12.3-6.7-21-0.1  c0,0-14.6,9.9-16.7,15.9c0,0-1.3,3.4,0.2,5.4c0,0,13.3-0.6,17.9-4.1c4.5-3.5,7.6-8.8,20.4-8.8s15.5,4.6,20.3,8.8  c4.9,4.1,16.5,4.1,16.5,4.1C288.7,303.1,287.4,299.7,287.4,299.7z" data-original="#AA0F0F"/><g>
	<path style="fill:#CE8B6A;" d="M260.8,266.1c0,0,13.8,1.3,8.5-13.5C269.3,252.6,280.3,268.9,260.8,266.1z" data-original="#CE8B6A" class=""/>
	<path style="fill:#CE8B6A;" d="M234.9,266.1c0,0-13.8,1.3-8.5-13.5C226.4,252.6,215.4,268.9,234.9,266.1z" data-original="#CE8B6A" class=""/>
</g><g>
	<path style="fill:#3A251C;" d="M256.6,256.1c0,0-4,4.5-1.3,5.3c0,0,5.8,0.5,8.8,0.8c0,0,4.3-2,2.3-5.3   C266.3,256.9,261.3,251.4,256.6,256.1z" data-original="#3A251C" class=""/>
	<path style="fill:#3A251C;" d="M239.1,256.1c0,0,4,4.5,1.3,5.3c0,0-5.8,0.5-8.8,0.8c0,0-4.3-2-2.3-5.3   C229.4,256.9,234.4,251.4,239.1,256.1z" data-original="#3A251C" class=""/>
</g><path style="fill:#8E0C0C" d="M212.1,305.1c0,0,3.4,1.3,5.6,3.2c0,0,3.2,4.1,5.8,5.8c0,0,5.6,3.8,14.4,3.6c0,0,7.4,0.5,11.1,0.4  c3.8,0.1,12.2-0.4,12.2-0.4c8.8,0.2,14.4-3.6,14.4-3.6c2.6-1.7,5.8-5.8,5.8-5.8c2.3-1.9,5.6-3.2,5.6-3.2c0.6-0.8-11.6-3.4-26.3-3.5  c-3.6,0-7.4,2-11.2,2c-4.3,0-8.7-2-12.8-2C222.8,301.8,211.5,304.3,212.1,305.1z" data-original="#8E0C0C" class=""/><g>
	<path style="fill:#CE8B6A;" d="M237.3,208.3c0,0,6.9,13.3-1.2,31.3c-0.6,1.4-3.2,3-2.3-0.3C234.7,236.3,241.1,224.6,237.3,208.3z" data-original="#CE8B6A" class=""/>
	<path style="fill:#CE8B6A;" d="M257.8,208.3c0,0-6.9,13.3,1.2,31.3c0.6,1.4,4.1,5.9,2.3-0.3C260.5,236.3,254.1,224.6,257.8,208.3z" data-original="#CE8B6A" class=""/>
</g><path style="fill:#262626;" d="M221.3,221.8c0,0-27-9.4-44.7,1.9c0,0-3.8,2.3-13.9-3c0,0,2.7,5.9,11.7,7.1c1.4,0.2,3.1,0.1,6.8-1.9  c0,0,5.9-4.4,12.7-4.9c0,0,12.5-0.8,22.3,2.8l6,0.5C222.3,224.3,222.6,222.1,221.3,221.8z" data-original="#262626" class=""/></g> </svg>
